<svg width="44" height="44" viewBox="0 0 44 44" fill="none" xmlns="http://www.w3.org/2000/svg">
<path d="M43.3454 9.05118C41.8146 9.72952 40.1701 10.1878 38.4413 10.395C40.2049 9.33902 41.5579 7.66335 42.1959 5.66868C40.5459 6.64768 38.7181 7.35902 36.7729 7.74035C35.2146 6.08302 32.9963 5.04535 30.5396 5.04535C25.8243 5.04535 21.9999 8.86968 21.9999 13.5887C21.9999 14.256 22.0769 14.905 22.2199 15.532C15.1194 15.1745 8.82927 11.7737 4.61627 6.60735C3.88294 7.87235 3.46127 9.33902 3.46127 10.901C3.46127 13.8637 4.97011 16.4798 7.25994 18.0107C5.85927 17.9648 4.54294 17.5817 3.39161 16.9418V17.0518C3.39161 21.1897 6.33411 24.6418 10.2428 25.4265C9.52411 25.6208 8.77061 25.7235 7.99327 25.7235C7.44327 25.7235 6.90611 25.6722 6.38544 25.5732C7.47261 28.9648 10.6259 31.4362 14.3641 31.5022C11.4399 33.7938 7.75677 35.1597 3.75644 35.1597C3.06711 35.1597 2.38694 35.1193 1.71777 35.0405C5.49811 37.466 9.98611 38.8777 14.8078 38.8777C30.5194 38.8777 39.1086 25.8647 39.1086 14.5787C39.1086 14.212 39.0994 13.8417 39.0829 13.475C40.7513 12.2687 42.1996 10.7672 43.3418 9.05668L43.3454 9.05118Z" fill="#1DA1F3"/>
</svg>
